<?xml version="1.0" encoding="utf-8"?>
<!-- Generator: Adobe Illustrator 27.5.0, SVG Export Plug-In . SVG Version: 6.00 Build 0)  -->
<svg version="1.1" xmlns="http://www.w3.org/2000/svg" xmlns:xlink="http://www.w3.org/1999/xlink" x="0px" y="0px"
	 viewBox="0 0 500 500" style="enable-background:new 0 0 500 500;" xml:space="preserve">
<g id="BACKGROUND">
	<g>
		<path style="fill:#FFFFBD;" d="M352.411,85.593c31.049,19.276,63.283,46.036,75.376,80.93
			c15.986,46.129,19.245,109.655-11.397,156.658c-30.902,47.403-106.497,69.728-160.083,53.179
			c-41.451-12.801-66.312-47.806-111.578-40.712c-19.834,3.108-23.613,11.169-34.372,8.54
			c-38.445-9.394-72.699-132.469-20.841-212.988C145.432,44.38,266.084,32,352.411,85.593z"/>
	</g>
	<g>
		<path style="fill:#E6B230;" d="M151.67,110.407c-2.137,0-3.169-1.702-4.168-3.349c-0.925-1.527-1.799-2.969-3.492-2.969
			c-1.693,0-2.567,1.442-3.493,2.969c-0.998,1.646-2.031,3.349-4.168,3.349c-2.136,0-3.167-1.702-4.165-3.349
			c-0.925-1.527-1.798-2.969-3.489-2.969c-1.692,0-2.566,1.442-3.491,2.969c-0.998,1.646-2.03,3.349-4.166,3.349
			c-2.136,0-3.167-1.702-4.165-3.349c-0.925-1.527-1.798-2.969-3.49-2.969c-1.691,0-2.564,1.442-3.488,2.968
			c-0.997,1.647-2.029,3.349-4.164,3.349c-2.136,0-3.167-1.703-4.164-3.349c-0.925-1.526-1.798-2.968-3.488-2.968v-0.79
			c2.135,0,3.167,1.702,4.164,3.349c0.925,1.526,1.798,2.968,3.489,2.968c1.691,0,2.564-1.442,3.488-2.968
			c0.997-1.647,2.029-3.349,4.164-3.349c2.136,0,3.168,1.703,4.165,3.349c0.925,1.527,1.798,2.968,3.489,2.968
			c1.692,0,2.566-1.442,3.491-2.968c0.998-1.647,2.03-3.349,4.167-3.349c2.136,0,3.167,1.702,4.165,3.349
			c0.925,1.526,1.798,2.968,3.49,2.968c1.693,0,2.567-1.442,3.492-2.968c0.998-1.646,2.03-3.349,4.168-3.349
			c2.137,0,3.169,1.702,4.168,3.349c0.925,1.526,1.799,2.968,3.492,2.968V110.407z"/>
		<path style="fill:#E6B230;" d="M372.11,105.94c-2.137,0-3.169-1.702-4.167-3.349c-0.925-1.526-1.8-2.969-3.493-2.969
			c-1.693,0-2.566,1.442-3.492,2.968c-0.999,1.646-2.03,3.349-4.168,3.349c-2.136,0-3.167-1.702-4.165-3.349
			c-0.925-1.526-1.798-2.969-3.49-2.969c-1.692,0-2.566,1.442-3.491,2.969c-0.998,1.646-2.03,3.349-4.167,3.349
			c-2.136,0-3.167-1.702-4.165-3.349c-0.925-1.526-1.798-2.969-3.49-2.969c-1.691,0-2.564,1.442-3.489,2.969
			c-0.997,1.646-2.028,3.349-4.163,3.349c-2.135,0-3.167-1.702-4.164-3.349c-0.925-1.527-1.798-2.969-3.489-2.969v-0.79
			c2.135,0,3.167,1.702,4.164,3.349c0.925,1.527,1.798,2.969,3.489,2.969c1.69,0,2.563-1.442,3.488-2.968
			c0.997-1.646,2.028-3.349,4.164-3.349c2.136,0,3.167,1.702,4.165,3.349c0.925,1.527,1.798,2.969,3.49,2.969
			c1.692,0,2.566-1.442,3.491-2.969c0.998-1.646,2.03-3.349,4.167-3.349c2.136,0,3.167,1.702,4.165,3.349
			c0.925,1.527,1.798,2.969,3.489,2.969c1.693,0,2.567-1.442,3.493-2.969c0.998-1.646,2.03-3.349,4.167-3.349
			c2.138,0,3.169,1.703,4.168,3.349c0.925,1.526,1.799,2.968,3.492,2.968V105.94z"/>
		<path style="fill:#E6B230;" d="M358.584,333.396c-2.137,0-3.169-1.702-4.167-3.349c-0.925-1.526-1.8-2.969-3.492-2.969
			c-1.693,0-2.566,1.442-3.492,2.968c-0.999,1.646-2.03,3.349-4.168,3.349c-2.136,0-3.167-1.702-4.165-3.349
			c-0.925-1.526-1.798-2.969-3.49-2.969c-1.692,0-2.566,1.442-3.491,2.969c-0.998,1.646-2.03,3.349-4.167,3.349
			c-2.136,0-3.167-1.702-4.165-3.349c-0.925-1.526-1.798-2.969-3.489-2.969s-2.564,1.442-3.489,2.969
			c-0.997,1.646-2.028,3.349-4.163,3.349c-2.135,0-3.167-1.702-4.164-3.349c-0.925-1.527-1.797-2.969-3.489-2.969v-0.79
			c2.135,0,3.167,1.702,4.164,3.349c0.925,1.527,1.798,2.969,3.489,2.969c1.69,0,2.563-1.442,3.488-2.968
			c0.997-1.646,2.028-3.349,4.164-3.349s3.167,1.702,4.165,3.349c0.925,1.526,1.798,2.969,3.489,2.969
			c1.692,0,2.566-1.442,3.491-2.969c0.998-1.646,2.03-3.349,4.167-3.349c2.136,0,3.167,1.702,4.165,3.349
			c0.925,1.526,1.798,2.969,3.489,2.969c1.693,0,2.567-1.442,3.493-2.969c0.998-1.646,2.03-3.349,4.167-3.349
			c2.138,0,3.169,1.703,4.168,3.349c0.925,1.526,1.799,2.968,3.492,2.968V333.396z"/>
		<g>
			
				<rect x="106.156" y="162.941" transform="matrix(0.707 -0.7072 0.7072 0.707 -82.6724 127.1095)" style="fill:#E6B230;" width="11.845" height="0.79"/>
			
				<rect x="111.684" y="157.414" transform="matrix(0.7071 -0.7071 0.7071 0.7071 -82.6693 127.0927)" style="fill:#E6B230;" width="0.79" height="11.845"/>
		</g>
		<g>
			
				<rect x="231.153" y="87.755" transform="matrix(0.707 -0.7072 0.7072 0.707 7.1162 193.4768)" style="fill:#E6B230;" width="11.845" height="0.79"/>
			
				<rect x="236.681" y="82.227" transform="matrix(0.7071 -0.7071 0.7071 0.7071 7.1074 193.4576)" style="fill:#E6B230;" width="0.79" height="11.845"/>
		</g>
		<g>
			
				<rect x="359.58" y="158.474" transform="matrix(0.7071 -0.7071 0.7071 0.7071 -5.2845 304.9807)" style="fill:#E6B230;" width="11.845" height="0.79"/>
			
				<rect x="365.107" y="152.947" transform="matrix(0.7071 -0.7071 0.7071 0.7071 -5.2836 304.9829)" style="fill:#E6B230;" width="0.79" height="11.845"/>
		</g>
		<g>
			
				<rect x="145.95" y="333.915" transform="matrix(0.7071 -0.7071 0.7071 0.7071 -191.9101 205.3072)" style="fill:#E6B230;" width="11.846" height="0.79"/>
			
				<rect x="151.478" y="328.387" transform="matrix(0.7071 -0.7071 0.7071 0.7071 -191.907 205.299)" style="fill:#E6B230;" width="0.79" height="11.846"/>
		</g>
	</g>
</g>
<g id="OBJECTS">
	<path style="fill:#E3E3A8;" d="M292.863,380.798c0-2.642-16.816-4.783-37.56-4.783c-20.744,0-37.56,2.142-37.56,4.783
		c0,2.642,16.816,4.783,37.56,4.783C276.046,385.581,292.863,383.44,292.863,380.798z"/>
	<path style="fill:#E3E3A8;" d="M461.486,378.954c0-2.642-16.816-4.783-37.56-4.783c-20.744,0-37.56,2.142-37.56,4.783
		c0,2.642,16.816,4.783,37.56,4.783C444.67,383.738,461.486,381.596,461.486,378.954z"/>
	<g>
		<path style="fill:#E05814;" d="M413.877,190.84c0,0-4.365-2.748-4.365,6.549c0,14.184-3.367,16.837-3.367,16.837
			s21.41,9.906,33.565,2.827c0,0-4.31-9.555-3.798-17.348L413.877,190.84z"/>
		<g>
			<g>
				<polygon style="fill:#A82394;" points="391.502,255.875 358.238,259.983 360.53,245.062 385.921,241.03 408.98,218.994 
					414.581,234.981 				"/>
			</g>
			<polygon style="opacity:0.4;fill:#271A4A;" points="403.04,231.602 397.421,250.543 403.04,245.425 			"/>
		</g>
		<path style="fill:#FAC402;" d="M376.225,205.816"/>
		<g>
			<g>
				<path style="fill:#FFBA82;" d="M416.348,205.01c0.014,1.888-1.505,3.429-3.393,3.443c-1.888,0.014-3.429-1.505-3.443-3.393
					c-0.014-1.888,1.505-3.429,3.393-3.443C414.793,201.603,416.334,203.123,416.348,205.01z"/>
				<g>
					
						<rect x="411.737" y="204.911" transform="matrix(0.7019 -0.7123 0.7123 0.7019 -22.9497 355.2338)" style="fill:#271A4A;" width="2.386" height="0.248"/>
					<polygon style="fill:#271A4A;" points="413.692,205.961 413.867,205.785 412.167,204.109 411.993,204.286 					"/>
				</g>
				<path style="fill:#FFFFFF;" d="M410.738,207.418c-0.362,0.738-0.057,1.629,0.68,1.991c0.738,0.362,1.629,0.057,1.991-0.68
					c0.362-0.738,0.057-1.629-0.68-1.991C411.991,206.376,411.1,206.681,410.738,207.418z"/>
			</g>
			<g>
				<g>
					<polygon style="fill:#A82394;" points="392.282,367.673 373.776,381.306 395.925,381.498 399.262,377.957 400.907,381.52 
						406.655,381.546 404.167,366.61 					"/>
				</g>
				<g>
					<polygon style="fill:#6B165E;" points="382.354,374.987 383.159,379.29 397.943,379.357 395.925,381.498 373.776,381.306 					
						"/>
				</g>
				<g>
					<polygon style="fill:#6B165E;" points="399.954,379.456 406.312,379.484 406.655,381.546 400.907,381.52 					"/>
				</g>
			</g>
			<path style="fill:#FFBA82;" d="M402.068,367.031c0,0-5.367,6.358-14.391,4.034l6.412-4.97L402.068,367.031z"/>
			<path style="fill:#173B4A;" d="M427.247,270.701c0,0,6.914,21.792-3.059,26.633c-10.826,5.257-17.925,28.719-17.925,28.719
				s-1.923,19.98-1.733,26.269c0.158,5.241-0.364,14.288-0.364,14.288c-0.757,0.585-11.866,1.239-11.93,0.577
				c-0.357-3.694-0.989-14.979-1.269-17.626c-1.198-11.32-2.614-20.898-0.995-30.198c1.65-9.481,10.074-43.318,10.074-43.318
				L427.247,270.701z"/>
			<g>
				<g>
					<polygon style="fill:#A82394;" points="440.812,361.265 432.856,382.829 451.459,370.807 452.298,366.015 455.632,368.085 
						460.447,364.945 450.154,353.84 					"/>
				</g>
				<g>
					<polygon style="fill:#6B165E;" points="436.544,372.834 439.584,375.985 451.967,367.909 451.459,370.807 432.856,382.829 
											"/>
				</g>
				<g>
					<polygon style="fill:#6B165E;" points="453.701,366.886 459.026,363.412 460.447,364.945 455.632,368.085 					"/>
				</g>
			</g>
			<path style="fill:#173B4A;" d="M432.718,271.115c0,0,9.249,18.885,2.071,27.333c-4.441,5.227-2.77,19.472-2.77,19.472
				s15.89,33.479,19.947,37.876l-11.512,6.44c-2.591-2.799-11.089-14.9-12.75-16.98c-1.661-2.08-10.969-16.002-13.273-21.636
				c-5.019-12.273-9.521-47.361-9.521-47.361L432.718,271.115z"/>
			<g>
				<path style="fill:#A82394;" d="M415.288,217.158l16.826,4.355c9.102,3.077,13.678,5.672,12.434,10.756l-9.809,32.202
					l0.573,13.206l-21.154,1.952c-4.975,0.459-9.957-0.806-14.11-3.584h0l4.025-24.713c-6.603-12.937,0.576-27.678,4.908-32.337
					C408.98,218.994,411.635,216.522,415.288,217.158z"/>
			</g>
			<path style="fill:#FFBA82;" d="M428.869,205.104l0.333,14.258c-0.152,1.536-4.112,5.225-8.243,5.897
				c-2.424,0.395-4.505-1.751-4.085-4.171l1.886-10.856L428.869,205.104z"/>
			<path style="fill:#ED944C;" d="M417.314,218.576l0.856-4.891l8.867-3.808l-0.363,1.961
				C426.673,211.838,425.359,215.078,417.314,218.576z"/>
			<g>
				<polygon style="fill:#FFFFFF;" points="429.732,220.962 429.157,217.426 418.645,224.837 420.25,229.336 				"/>
			</g>
			<g>
				<polygon style="fill:#FFFFFF;" points="417.736,216.217 417.46,217.714 418.645,224.837 415.178,227.578 415.288,217.158 				
					"/>
			</g>
			<path style="fill:#FFBA82;" d="M428.491,213.783l-6.316,1.023c-1.999,0.387-5.609,0.29-7.201-0.738
				c-1.774-1.146-2.967-3.217-2.929-4.7l-1.021-11.841l17.484-1.972L428.491,213.783z"/>
			<path style="fill:#E05814;" d="M411.275,194.408c-0.362,0.77,16.644,1.746,16.713,8.672c0.062,6.136,1.109,8.833,1.109,8.833
				s15.83-13.629-0.764-22.553C419.766,184.753,414.294,187.983,411.275,194.408z"/>
			<g>
				<path style="fill:#0B1C24;" d="M415.223,203.386c0.042,0.294-0.163,0.566-0.457,0.608c-0.294,0.042-0.566-0.163-0.608-0.457
					c-0.042-0.294,0.163-0.566,0.457-0.608C414.909,202.888,415.181,203.092,415.223,203.386z"/>
				<path style="fill:#0B1C24;" d="M422.493,203.754c0.042,0.294-0.163,0.566-0.457,0.608c-0.294,0.042-0.566-0.163-0.608-0.457
					c-0.042-0.294,0.163-0.566,0.457-0.608C422.179,203.255,422.451,203.46,422.493,203.754z"/>
				<path style="fill:#0B1C24;" d="M421.032,209.074c0.573-0.285,1.175-0.773,1.736-1.581c0.039-0.056,0.024-0.133-0.032-0.173
					c-0.056-0.039-0.133-0.026-0.173,0.032c-1.803,2.601-3.973,1.71-4.064,1.672c-0.063-0.026-0.136,0.002-0.163,0.065
					c-0.027,0.063,0.002,0.135,0.064,0.163C418.418,209.26,419.638,209.767,421.032,209.074z"/>
				<path style="fill:#ED944C;" d="M416.965,202.712l-1.45,3.414c-0.188,0.442-0.021,0.955,0.391,1.201l1.352,0.365L416.965,202.712
					z"/>
			</g>
			<path style="fill:#FFBA82;" d="M449.529,357.159c0,0-2.621,9.88-11.168,10.749l2.093-5.673L449.529,357.159z"/>
			<path style="fill:#E05814;" d="M429.621,201.941c0,0-21.862,2.401-21.857-7.856C407.769,186.35,425.613,184.063,429.621,201.941z
				"/>
			<g>
				<path style="fill:#FFBA82;" d="M432.115,204.76c0.359,1.854-0.852,3.647-2.706,4.006c-1.853,0.359-3.647-0.852-4.006-2.705
					c-0.359-1.853,0.852-3.647,2.706-4.006C429.962,201.696,431.756,202.907,432.115,204.76z"/>
				<g>
					
						<rect x="427.566" y="205.287" transform="matrix(0.5597 -0.8287 0.8287 0.5597 18.5737 445.7766)" style="fill:#ED944C;" width="2.386" height="0.248"/>
					
						<rect x="428.635" y="204.218" transform="matrix(0.5605 -0.8281 0.8281 0.5605 18.3148 445.3343)" style="fill:#ED944C;" width="0.248" height="2.386"/>
				</g>
			</g>
			<path style="fill:#FFFFFF;" d="M427.665,208.154c-0.221,0.792,0.242,1.612,1.033,1.833c0.791,0.221,1.612-0.242,1.833-1.033
				c0.221-0.791-0.242-1.612-1.033-1.833C428.706,206.9,427.886,207.363,427.665,208.154z"/>
			<g>
				<g>
					<g>
						<path style="fill:#FFBA82;" d="M472.981,283.225l6.525,3.535c0.21,0.096,0.388,0.228,0.514,0.384
							c0.376,0.467-0.718,1.02-1.404,1.022c-0.901,0.003-6.727-2.917-6.727-2.917"/>
						<path style="fill:#FFBA82;" d="M471.797,276.559l2.238,0.651c0.207,0.298,1.818,1.486,2.144,1.725l6.309,3.703
							c0.34,0.196-0.214,0.878-0.99,1.048c-0.391,0.086-1.15-0.091-2.099-0.473c-0.892-0.359-5-2.296-5-2.296l7.265,4.084
							c0.169,0.079,0.311,0.186,0.413,0.313c0.397,0.492-0.783,1.118-1.609,1.112c-1.028-0.007-7.163-3.319-7.163-3.319"/>
						<path style="fill:#FFBA82;" d="M477.269,288.523c-0.138-0.275-1.73-1.102-2.277-1.453l-2.346-1.485l1.666-3.65l-2.422-5.713
							l-2.372-0.465l-4.909,5.958c1.893,1.299,5.929,5.336,7.126,5.414c0.018,0.001,3.279,1.726,3.663,1.872
							C476.462,289.405,477.396,288.775,477.269,288.523z"/>
					</g>
					<path style="fill:#FFBA82;" d="M472.976,279.026L472.976,279.026c2.647,0.037,5.189-0.52,5.189-0.52
						c1.373-0.294,1.641-0.743,1.588-1.385c-0.038-0.46-3.206-0.387-6.114-1.092l-3.897-0.322L472.976,279.026z"/>
				</g>
				<g>
					<path style="fill:#A82394;" d="M442.527,271.315l22.91,14.177l7.782-11.86l-20.093-13.723l-6.287-28.305
						c-0.955-3.682-4.393-6.164-8.189-5.912l0,0l-1.597,1.372c-4.095,3.517-6.344,8.815-5.719,14.176
						c0.338,2.901,1.195,5.842,2.324,8.8L442.527,271.315z"/>
				</g>
			</g>
			<g>
				<path style="fill:#A82394;" d="M418.692,188.717c1.506-0.518,3.177-0.512,4.765-0.161c1.59,0.36,3.121,1.098,4.399,2.146
					c0.603,0.557,1.235,1.1,1.706,1.771c0.238,0.331,0.52,0.633,0.715,0.99c0.204,0.351,0.4,0.705,0.591,1.06
					c0.207,0.346,0.343,0.726,0.481,1.103l0.402,1.124c0.186,0.775,0.337,1.554,0.427,2.333c-0.457-0.661-0.813-1.339-1.206-1.991
					l-0.63-0.944c-0.207-0.313-0.392-0.636-0.636-0.917c-0.229-0.292-0.453-0.583-0.669-0.878c-0.217-0.295-0.488-0.542-0.725-0.816
					c-0.242-0.27-0.472-0.549-0.755-0.774c-0.268-0.238-0.521-0.496-0.797-0.723C424.536,190.234,421.804,189.117,418.692,188.717z"
					/>
			</g>
		</g>
		<g>
			<path style="fill:#E05814;" d="M413.213,205.032c0,0.156-0.127,0.283-0.283,0.283c-0.156,0-0.283-0.127-0.283-0.283
				s0.127-0.283,0.283-0.283C413.086,204.749,413.213,204.876,413.213,205.032z"/>
			<path style="fill:#E05814;" d="M414.581,205.104c0,0.156-0.127,0.283-0.283,0.283c-0.156,0-0.283-0.127-0.283-0.283
				c0-0.156,0.127-0.283,0.283-0.283C414.454,204.821,414.581,204.947,414.581,205.104z"/>
			<path style="fill:#E05814;" d="M413.845,206.039c0,0.156-0.127,0.283-0.283,0.283c-0.156,0-0.283-0.127-0.283-0.283
				s0.127-0.283,0.283-0.283C413.718,205.756,413.845,205.882,413.845,206.039z"/>
		</g>
		<g>
			<path style="fill:#E05814;" d="M423.577,205.104c0,0.156-0.127,0.283-0.283,0.283c-0.156,0-0.283-0.127-0.283-0.283
				c0-0.156,0.127-0.283,0.283-0.283C423.45,204.821,423.577,204.947,423.577,205.104z"/>
			<path style="fill:#E05814;" d="M424.945,205.175c0,0.156-0.127,0.283-0.283,0.283c-0.156,0-0.283-0.127-0.283-0.283
				s0.127-0.283,0.283-0.283C424.818,204.892,424.945,205.019,424.945,205.175z"/>
			<path style="fill:#E05814;" d="M424.209,206.11c0,0.156-0.127,0.283-0.283,0.283s-0.283-0.127-0.283-0.283
				c0-0.156,0.127-0.283,0.283-0.283S424.209,205.954,424.209,206.11z"/>
		</g>
	</g>
	
		<text transform="matrix(1 0 0 1 136.4216 189.7287)" style="fill:#0B1C24; font-family:'Montserrat-SemiBold'; font-size:76.6696px; letter-spacing:15;">WEL</text>
	<g>
		<g>
			<g>
				<path style="fill:#E05814;" d="M211.222,237.229l-26.45,22.988l5.99,12.543l31.179-23.257l23.118-26.458
					c3.108-2.474,3.623-6.999,1.149-10.107l-1.675-2.105c-2.474-3.109-6.999-3.623-10.108-1.149L211.222,237.229z"/>
			</g>
		</g>
		<g>
			<g>
				<path style="fill:#E05814;" d="M298.333,237.984l24.863,19.888l-2.782,14.888l-32.8-22.501l-23.118-26.458
					c-3.108-2.474-3.622-6.999-1.149-10.107l1.675-2.105c2.474-3.109,8.775-2.399,11.883,0.075L298.333,237.984z"/>
			</g>
		</g>
		<path style="fill:#BD7135;" d="M268.447,178.874c0,0,0.582,8.19,0,11.968c-0.582,3.778-3.904,2.469-3.904,2.469v-12.596
			L268.447,178.874z"/>
		<g>
			<path style="fill:#FFBA82;" d="M262.923,188.147c-0.565,2.039,0.63,4.149,2.668,4.713c2.038,0.565,4.149-0.63,4.713-2.669
				c0.565-2.039-0.63-4.149-2.668-4.713C265.598,184.914,263.488,186.109,262.923,188.147z"/>
			<g>
				<polygon style="fill:#271A4A;" points="267.16,190.396 267.384,190.27 266.067,187.943 265.843,188.069 				"/>
				<polygon style="fill:#271A4A;" points="265.514,189.94 267.84,188.622 267.713,188.4 265.387,189.717 				"/>
			</g>
		</g>
		<g>
			<g>
				<polygon style="fill:#E05814;" points="272.18,366.496 291.922,381.8 267.854,381.419 264.323,377.483 262.441,381.31 
					256.195,381.185 259.296,365.025 				"/>
				<polygon style="fill:#173B4A;" points="282.771,374.706 281.781,379.36 265.718,379.038 267.854,381.419 291.922,381.8 				"/>
				<polygon style="fill:#173B4A;" points="263.531,379.093 256.623,378.954 256.195,381.185 262.441,381.31 				"/>
			</g>
			<g>
				<polygon style="fill:#E05814;" points="238.954,366.496 219.212,381.8 243.28,381.419 246.811,377.483 248.693,381.31 
					254.939,381.185 251.838,365.025 				"/>
				<polygon style="fill:#173B4A;" points="228.363,374.706 229.353,379.36 245.416,379.038 243.28,381.419 219.212,381.8 				"/>
				<polygon style="fill:#271A4A;" points="247.603,379.093 254.511,378.954 254.939,381.185 248.693,381.31 				"/>
			</g>
			<polygon style="fill:#173B4A;" points="254.939,271.82 233.831,271.821 232.314,369.304 252.721,369.304 254.409,292.171 
				256.309,292.171 257.837,369.304 276.926,369.304 276.926,271.821 			"/>
			<polygon style="fill:#FFFFFF;" points="242.336,279.03 252.248,282.891 256.535,272.013 			"/>
			<polygon style="fill:#FFFFFF;" points="267.624,278.358 257.931,282.74 253.073,272.105 			"/>
			<path style="fill:#E05814;" d="M260.697,207.154l-9.668,0.413c-9.827-0.414-18.842,0.277-20.224,7.751l3.012,35.474
				l-1.236,25.657c0,0,16.379,8.092,45.984-0.592l-1.971-25.46c-0.046-6.835,4.811-33.587,0.31-38.732
				C276.095,210.739,272.179,207.07,260.697,207.154z"/>
			<path style="fill:#FFBA82;" d="M250.288,192.833l-1.436,14.138c0.109,1.589,2.172,6.068,6.49,6.068
				c5.536,0,7.012-3.617,6.655-6.126l-1.366-9.574L250.288,192.833z"/>
			<path style="fill:#ED944C;" d="M261.498,203.411l-0.735-5.071l-9.025-4.204l0.313,2.034
				C252.051,196.169,253.311,199.551,261.498,203.411z"/>
			<path style="fill:#FFBA82;" d="M249.753,198.298l11.401,2.241c2.061,0.406,4.082-0.311,5.431-1.727
				c1.056-1.108,1.427-3.937,1.393-5.467l-0.721-15.18l-17.382-0.17L249.753,198.298z"/>
			<path style="fill:#965A2A;" d="M249.881,196.847l0.775-13.253c0,0,15.861,3.271,18.196-1.519c2.335-4.79,1.57-8.818,1.57-8.818
				s-23.673-5.642-24.628,7.918C244.838,194.734,249.881,196.847,249.881,196.847z"/>
			<g>
				<path style="fill:#FFBA82;" d="M245.297,190.156c0.068,2.114,1.836,3.773,3.95,3.706c2.114-0.067,3.773-1.836,3.706-3.95
					c-0.068-2.114-1.836-3.773-3.95-3.706C246.888,186.273,245.229,188.042,245.297,190.156z"/>
				<g>
					<polygon style="fill:#ED944C;" points="250.011,191.042 250.187,190.855 248.238,189.025 248.061,189.212 					"/>
					<polygon style="fill:#ED944C;" points="248.304,191.096 250.133,189.146 249.945,188.971 248.116,190.921 					"/>
				</g>
			</g>
			<g>
				<g>
					<path style="fill:#0B1C24;" d="M263.995,188.275c-0.038,0.303,0.177,0.58,0.48,0.618s0.58-0.176,0.618-0.48
						c0.038-0.303-0.177-0.58-0.479-0.618C264.309,187.757,264.033,187.972,263.995,188.275z"/>
					<path style="fill:#0B1C24;" d="M255.899,188.647c-0.038,0.303,0.177,0.58,0.48,0.618c0.303,0.038,0.58-0.176,0.618-0.48
						c0.038-0.303-0.177-0.58-0.479-0.618C256.213,188.129,255.937,188.344,255.899,188.647z"/>
					<path style="fill:#ED944C;" d="M260.828,187.247l1.547,3.489c0.2,0.452,0.037,0.982-0.383,1.242l-1.385,0.397L260.828,187.247z
						"/>
					<path style="fill:#FFFFFF;" d="M256.741,192.573c0,0,1.399,1.404,4.409,2.076C261.149,194.648,256.989,197.767,256.741,192.573
						z"/>
				</g>
				<g>
					<g>
						<path style="fill:#FFFFFF;" d="M254.701,191.675c-1.366-0.712-2.073-2.325-1.599-3.846l0-0.001
							c0.533-1.709,2.358-2.665,4.067-2.131c1.702,0.526,2.665,2.357,2.132,4.067c-0.533,1.709-2.358,2.665-4.067,2.132
							C255.048,191.838,254.869,191.763,254.701,191.675z M253.722,188.022c-0.426,1.368,0.342,2.828,1.707,3.255
							c1.367,0.426,2.827-0.338,3.254-1.706c0.426-1.368-0.344-2.83-1.707-3.255C255.609,185.889,254.149,186.654,253.722,188.022
							L253.722,188.022z"/>
					</g>
					<g>
						<path style="fill:#FFFFFF;" d="M263.699,191.251c-1.366-0.712-2.073-2.325-1.599-3.846l0-0.001
							c0.533-1.709,2.358-2.665,4.067-2.131c1.702,0.526,2.665,2.357,2.132,4.067c-0.533,1.709-2.358,2.665-4.067,2.132
							C264.046,191.414,263.868,191.339,263.699,191.251z M262.72,187.598c-0.426,1.368,0.342,2.828,1.707,3.255
							c1.367,0.426,2.827-0.338,3.254-1.706c0.426-1.368-0.344-2.83-1.707-3.255C264.608,185.465,263.147,186.23,262.72,187.598
							L262.72,187.598z"/>
					</g>
					<path style="fill:#FFFFFF;" d="M259.292,188.549l-0.498-0.454c0.035-0.039,0.882-0.955,2.033-0.995
						c0.015,0,0.029-0.001,0.043-0.001c0.627-0.01,1.213,0.242,1.742,0.747l-0.466,0.487c-0.405-0.388-0.834-0.567-1.295-0.56
						C259.981,187.803,259.299,188.541,259.292,188.549z"/>
				</g>
			</g>
			<polygon style="fill:#FFFFFF;" points="249.096,204.311 249.697,206.752 255.146,212.811 254.08,216.853 247.482,209.447 			"/>
			<polygon style="fill:#FFFFFF;" points="261.623,204.311 261.022,206.752 255.573,212.811 256.639,216.853 263.237,209.447 			"/>
		</g>
	</g>
	<rect x="100.953" y="234.04" style="fill:none;" width="303.958" height="62.118"/>
	
		<text transform="matrix(1 0 0 1 107.4909 290.9274)" style="fill:#0B1C24; font-family:'Montserrat-SemiBold'; font-size:76.6696px; letter-spacing:15;">COME</text>
	<path style="fill:#E3E3A8;" d="M105.333,380.583c0-2.642-13.697-4.783-30.593-4.783s-30.593,2.142-30.593,4.783
		c0,2.642,13.697,4.783,30.593,4.783S105.333,383.225,105.333,380.583z"/>
	<g>
		<g>
			<g>
				<g>
					<path style="fill:#D17D3B;" d="M131.026,211.753c0,0,4.908-6.099,14.577-5.162c0,0,11.106-5.781,11.538-4.559
						c0.432,1.222,0.201,2.849-7.05,6.538c-7.251,3.689-13.787,7.699-13.787,7.699L131.026,211.753z"/>
					<g>
						<g>
							<g>
								<polygon style="fill:#FAC402;" points="81.125,367.082 99.085,381.427 76.946,380.755 73.749,377.087 71.966,380.583 
									66.221,380.385 69.29,365.557 								"/>
							</g>
							<g>
								<polygon style="fill:#9E9601;" points="90.76,374.777 89.787,379.046 75.012,378.536 76.946,380.755 99.085,381.427 
																	"/>
							</g>
							<g>
								<polygon style="fill:#9E9601;" points="72.999,378.557 66.645,378.338 66.221,380.385 71.966,380.583 								"/>
							</g>
						</g>
						<path style="fill:#A6652D;" d="M70.547,366.356c0,0,5.938,6.266,15.046,4.296l-6.214-5.216L70.547,366.356z"/>
						<path style="fill:#A6652D;" d="M67.342,271.076c0,0-6.482,20.508-0.273,33.791c5.491,11.744,2.405,58.802,2.261,60.698
							c-0.114,1.499,11.364,3.685,11.538,3.043c0.972-3.582,7.927-37.135,7.892-46.575c-0.035-9.623-0.524-50.764-0.524-50.764
							L67.342,271.076z"/>
					</g>
					<g>
						<g>
							<g>
								<polygon style="fill:#FAC402;" points="70.271,367.082 88.232,381.427 66.092,380.755 62.896,377.087 61.113,380.583 
									55.368,380.385 58.436,365.557 								"/>
							</g>
							<g>
								<polygon style="fill:#9E9601;" points="79.907,374.777 78.934,379.046 64.159,378.536 66.092,380.755 88.232,381.427 
																	"/>
							</g>
							<g>
								<polygon style="fill:#9E9601;" points="62.146,378.557 55.792,378.338 55.368,380.385 61.113,380.583 								"/>
							</g>
						</g>
						<path style="fill:#D17D3B;" d="M58.436,365.557c0,0,7.196,7.065,16.304,5.095l-6.214-5.216L58.436,365.557z"/>
						<path style="fill:#D17D3B;" d="M58.584,267.807c0,0-8.578,23.777-2.368,37.059c5.491,11.744,2.405,58.802,2.261,60.698
							c-0.114,1.499,11.364,3.685,11.538,3.043c0.972-3.582,7.927-37.135,7.892-46.575c-0.035-9.623,0.138-52.285,0.138-52.285
							L58.584,267.807z"/>
					</g>
					<g>
						<path style="fill:#D17D3B;" d="M76.185,204.22c-0.014,1.888,1.505,3.429,3.393,3.443c1.888,0.014,3.429-1.505,3.443-3.393
							c0.014-1.888-1.505-3.429-3.393-3.443C77.741,200.813,76.199,202.333,76.185,204.22z"/>
						<g>
							
								<rect x="79.479" y="203.052" transform="matrix(0.7123 -0.7019 0.7019 0.7123 -120.4548 114.6373)" style="fill:#271A4A;" width="0.248" height="2.386"/>
							
								<rect x="78.41" y="204.121" transform="matrix(0.7113 -0.7029 0.7029 0.7113 -120.5773 114.9113)" style="fill:#271A4A;" width="2.386" height="0.248"/>
						</g>
					</g>
					<g>
						<g>
							<polygon style="fill:#FAC402;" points="114.434,234.311 144.961,217.723 131.935,206.564 109.557,219.219 78.666,216.302 
								83.365,232.333 							"/>
						</g>
						<polygon style="opacity:0.4;fill:#271A4A;" points="82.211,220.476 96.659,233.184 89.075,232.679 						"/>
					</g>
					<g>
						<path style="fill:#FAC402;" d="M77.245,216.368l-16.826,4.355c-9.103,3.077-13.678,5.672-12.434,10.756l10.569,24.217
							l-2.015,21.182l21.837,1.961c4.975,0.459,6.933-11.02,11.086-13.798l-1.001-14.499c6.603-12.937-0.576-27.678-4.908-32.337
							C83.553,218.204,80.898,215.732,77.245,216.368z"/>
					</g>
					<path style="fill:#D17D3B;" d="M63.664,204.314l-0.333,14.258c0.152,1.536,4.113,5.225,8.244,5.897
						c2.424,0.395,4.505-1.751,4.085-4.171l-1.886-10.856L63.664,204.314z"/>
					<path style="fill:#5E391A;" d="M75.22,217.786l-0.856-4.891l-8.867-3.808l0.363,1.961
						C65.86,211.048,67.174,214.288,75.22,217.786z"/>
					<g>
						<polygon style="fill:#FFFFFF;" points="62.801,220.172 63.376,216.637 73.889,224.047 72.283,228.546 						"/>
					</g>
					<g>
						<polygon style="fill:#FFFFFF;" points="74.797,215.427 75.073,216.924 73.889,224.047 77.355,226.788 77.245,216.368 						
							"/>
					</g>
					<path style="fill:#D17D3B;" d="M64.043,212.993l6.316,1.023c1.998,0.387,5.609,0.29,7.201-0.738
						c1.774-1.146,2.967-3.217,2.929-4.7l0.769-14.959l-17.232,1.146L64.043,212.993z"/>
					<path style="fill:#0B1C24;" d="M81.258,193.618c0.148,0.513-6.286,1.122-6.286,1.122c-1.003,3.866-6.719,6.753-11.968,7.76
						c-6.026,1.156,0.573,5.538,0.573,5.538S52.921,194.741,64.2,188.57C72.734,183.901,79.603,187.876,81.258,193.618z"/>
					<g>
						<path style="fill:#0B1C24;" d="M77.597,202.596c-0.042,0.294,0.163,0.566,0.457,0.608c0.294,0.042,0.566-0.163,0.608-0.457
							c0.042-0.294-0.163-0.566-0.457-0.608C77.911,202.098,77.638,202.302,77.597,202.596z"/>
						<path style="fill:#0B1C24;" d="M70.04,202.964c-0.042,0.294,0.163,0.566,0.457,0.608c0.294,0.042,0.566-0.163,0.608-0.457
							c0.042-0.294-0.163-0.566-0.456-0.608C70.354,202.465,70.082,202.67,70.04,202.964z"/>
						<path style="fill:#5E391A;" d="M75.568,202.901l1.45,3.414c0.188,0.442,0.021,0.955-0.391,1.201l-1.352,0.365L75.568,202.901z
							"/>
						<path style="fill:#FFFFFF;" d="M70.563,206.538c0,0,1.399,1.403,4.408,2.075C74.972,208.613,70.812,211.732,70.563,206.538z"
							/>
					</g>
					<g>
						<path style="fill:#D17D3B;" d="M60.418,203.97c-0.359,1.854,0.852,3.647,2.706,4.006c1.853,0.359,3.647-0.852,4.006-2.706
							c0.359-1.853-0.852-3.647-2.705-4.006C62.571,200.906,60.778,202.117,60.418,203.97z"/>
						<g>
							
								<rect x="63.65" y="203.428" transform="matrix(0.8287 -0.5597 0.5597 0.8287 -103.6014 70.747)" style="fill:#5E391A;" width="0.248" height="2.386"/>
							
								<rect x="62.581" y="204.497" transform="matrix(0.8283 -0.5604 0.5604 0.8283 -103.7077 70.8799)" style="fill:#5E391A;" width="2.386" height="0.248"/>
						</g>
					</g>
					<g>
						<g>
							<g>
								<path style="fill:#D17D3B;" d="M47.432,291.474l1.812,7.196c0.072,0.22,0.095,0.439,0.065,0.638
									c-0.089,0.593-1.236,0.162-1.702-0.342c-0.612-0.662-2.404-6.926-2.404-6.926"/>
								<path style="fill:#D17D3B;" d="M51.54,286.091l1.035,2.088c-0.08,0.354,0.136,2.344,0.181,2.746l1.543,7.151
									c0.085,0.383-0.791,0.436-1.441-0.02c-0.327-0.23-0.711-0.908-1.072-1.865c-0.339-0.9-1.693-5.235-1.693-5.235L52,299.069
									c0.056,0.177,0.073,0.354,0.049,0.515c-0.094,0.626-1.353,0.18-1.908-0.432c-0.69-0.762-2.403-7.52-2.403-7.52"/>
								<path style="fill:#D17D3B;" d="M46.434,298.216c0.109-0.288-0.359-2.019-0.471-2.66l-0.494-2.733l3.815-1.243l2.568-5.649
									l-1.263-2.061l-7.708,0.417c0.324,2.273,0.083,7.976,0.836,8.91c0.012,0.014,0.948,3.582,1.1,3.964
									C45.238,298.219,46.334,298.48,46.434,298.216z"/>
							</g>
							<path style="fill:#D17D3B;" d="M50.521,288.629L50.521,288.629c1.764,1.975,3.894,3.469,3.894,3.469
								c1.146,0.812,1.658,0.706,2.094,0.232c0.313-0.34-1.884-2.623-3.333-5.241l-2.4-3.087L50.521,288.629z"/>
						</g>
						<g>
							<path style="fill:#FAC402;" d="M37.413,262.277l2.537,26.435l13.227-1.715l-2.799-23.238l12.279-29.146
								c1.316-3.569,0.855-10.064-2.406-12.022l0,0l-2.095,0.216c-5.369,0.553-10.238,3.622-12.783,8.382
								c-1.377,2.575-2.351,5.48-3.111,8.553L37.413,262.277z"/>
						</g>
					</g>
					<path style="fill:#173B4A;" d="M58.162,262.892l-10.76,66.087l48.795,0.62l-7.076-69.489
						c-4.841,5.105-11.695,6.276-22.148,4.86L58.162,262.892z"/>
				</g>
				<circle style="fill:#0B1C24;" cx="56.621" cy="191.208" r="6.089"/>
				<g>
					<g>
						<path style="fill:#FFFFFF;" d="M69.277,206.13c-1.366-0.712-2.073-2.325-1.599-3.846l0-0.001
							c0.533-1.709,2.358-2.665,4.067-2.131c1.702,0.526,2.665,2.357,2.132,4.067c-0.533,1.709-2.358,2.665-4.067,2.132
							C69.624,206.292,69.446,206.218,69.277,206.13z M68.298,202.477c-0.426,1.368,0.342,2.828,1.707,3.255
							c1.367,0.426,2.827-0.338,3.254-1.706c0.426-1.368-0.344-2.83-1.707-3.255C70.185,200.344,68.725,201.109,68.298,202.477
							L68.298,202.477z"/>
					</g>
					<g>
						<path style="fill:#FFFFFF;" d="M78.276,205.706c-1.366-0.712-2.073-2.325-1.599-3.846l0-0.001
							c0.533-1.709,2.358-2.665,4.067-2.131c1.702,0.526,2.665,2.357,2.132,4.067c-0.533,1.709-2.358,2.665-4.067,2.132
							C78.623,205.868,78.444,205.794,78.276,205.706z M77.297,202.052c-0.426,1.368,0.342,2.828,1.707,3.255
							c1.367,0.426,2.827-0.338,3.254-1.706c0.426-1.368-0.344-2.83-1.707-3.255C79.184,199.92,77.724,200.685,77.297,202.052
							L77.297,202.052z"/>
					</g>
					<path style="fill:#FFFFFF;" d="M73.869,203.003l-0.498-0.454c0.035-0.039,0.882-0.956,2.033-0.995
						c0.015,0,0.029-0.001,0.043-0.001c0.627-0.01,1.213,0.241,1.742,0.747l-0.466,0.487c-0.405-0.388-0.834-0.567-1.295-0.56
						C74.557,202.258,73.876,202.996,73.869,203.003z"/>
				</g>
			</g>
			<path style="fill:#0B1C24;" d="M81.258,193.618l-0.256,4.984c0,0-4.081,0.489-6.487-3.862L81.258,193.618z"/>
		</g>
	</g>
	<g>
		<g>
			<path style="fill:#FFBA82;" d="M182.046,265.122l3.255-2.055c0.262-0.139,0.487-0.35,0.653-0.615
				c0.493-0.792,1.427-2.469,0.598-2.595c-1.09-0.165-5.135,2.066-5.135,2.066"/>
			<path style="fill:#FFBA82;" d="M182.115,267.748l3.255-2.055c0.262-0.139,0.488-0.35,0.653-0.615
				c0.493-0.792,1.427-2.469,0.598-2.595c-1.09-0.166-5.135,2.065-5.135,2.065"/>
			<path style="fill:#FFBA82;" d="M182.185,270.374l3.255-2.055c0.262-0.139,0.487-0.35,0.653-0.615
				c0.493-0.792,1.428-2.469,0.598-2.595c-1.09-0.165-5.135,2.065-5.135,2.065"/>
			<path style="fill:#FFBA82;" d="M182.23,269.695c0,0,3.441-2.125,4.531-1.96c0.83,0.126-0.105,1.803-0.598,2.595
				c-0.165,0.266-0.391,0.476-0.653,0.615l-1.821,1.15c-0.867,0.547-1.956,0.317-2.515-0.561c-0.938-1.472-0.768-4.815-0.698-7.703
				c0.114-4.711,3.058-5.799,3.058-5.799l0.186,2.83L182.23,269.695z"/>
		</g>
	</g>
	<g>
		<g>
			<path style="fill:#FFBA82;" d="M322.564,263.893l-2.953-2.469c-0.241-0.173-0.437-0.411-0.565-0.696
				c-0.383-0.851-1.087-2.637-0.248-2.652c1.102-0.019,4.815,2.729,4.815,2.729"/>
			<path style="fill:#FFBA82;" d="M322.146,266.487l-2.953-2.469c-0.241-0.173-0.437-0.411-0.565-0.697
				c-0.384-0.851-1.087-2.637-0.248-2.651c1.102-0.019,4.815,2.729,4.815,2.729"/>
			<path style="fill:#FFBA82;" d="M321.728,269.08l-2.953-2.469c-0.241-0.173-0.436-0.411-0.565-0.696
				c-0.384-0.851-1.087-2.637-0.248-2.651c1.102-0.019,4.815,2.729,4.815,2.729"/>
			<path style="fill:#FFBA82;" d="M321.774,268.401c0,0-3.128-2.563-4.23-2.544c-0.839,0.015-0.136,1.801,0.248,2.651
				c0.129,0.285,0.324,0.524,0.565,0.696l1.652,1.382c0.786,0.658,1.897,0.574,2.567-0.222c1.125-1.335,1.401-4.671,1.715-7.542
				c0.513-4.684-2.26-6.154-2.26-6.154l-0.561,2.78L321.774,268.401z"/>
		</g>
	</g>
	<g>
		<g>
			<path style="fill:#FFBA82;" d="M348.247,247.026l2.605-2.405c0.214-0.17,0.383-0.398,0.488-0.666
				c0.314-0.8,0.88-2.474,0.108-2.45c-1.015,0.032-4.305,2.728-4.305,2.728"/>
			<path style="fill:#FFBA82;" d="M348.749,249.393l2.605-2.404c0.214-0.17,0.383-0.398,0.489-0.666
				c0.314-0.8,0.88-2.474,0.108-2.45c-1.015,0.032-4.305,2.728-4.305,2.728"/>
			<path style="fill:#FFBA82;" d="M349.25,251.759l2.605-2.405c0.214-0.17,0.383-0.398,0.488-0.666c0.314-0.8,0.88-2.474,0.108-2.45
				c-1.015,0.032-4.305,2.728-4.305,2.728"/>
			<path style="fill:#FFBA82;" d="M349.178,251.136c0,0,2.761-2.499,3.776-2.531c0.772-0.024,0.206,1.65-0.108,2.45
				c-0.105,0.268-0.274,0.496-0.488,0.666l-1.457,1.345c-0.693,0.64-1.719,0.613-2.371-0.088c-1.095-1.177-1.5-4.232-1.919-6.859
				c-0.683-4.285,2.63-6.061,2.63-6.061l0.051,2.892L349.178,251.136z"/>
		</g>
	</g>
</g>
<g id="DESIGNED_BY_FREEPIK">
	<g>
		<g id="XMLID_8_">
			<g id="XMLID_52_">
				<path id="XMLID_60_" style="fill:#999999;" d="M261.418,465.465c-0.432,0.443-0.803,0.931-1.108,1.453l-0.465-0.241
					c-0.067-0.298-0.349-0.503-0.659-0.466c-0.331,0.039-0.568,0.339-0.529,0.67c0.039,0.331,0.339,0.568,0.67,0.529
					c0.065-0.008,0.127-0.026,0.184-0.052l0.452,0.234c-0.251,0.554-0.433,1.139-0.539,1.744l0.747,0.132
					c0.23-1.306,0.85-2.507,1.792-3.473L261.418,465.465z"/>
				<path id="XMLID_59_" style="fill:#999999;" d="M266.905,463.163c-0.171,0-0.341,0.006-0.51,0.017l-0.074-0.626
					c0.188-0.149,0.296-0.389,0.266-0.645c-0.046-0.393-0.402-0.674-0.795-0.628c-0.393,0.046-0.674,0.402-0.628,0.795
					c0.03,0.254,0.189,0.461,0.405,0.564l0.073,0.624c-0.714,0.116-1.403,0.332-2.06,0.646l0.327,0.684
					c0.934-0.447,1.942-0.673,2.995-0.673c0.496,0,0.993,0.053,1.475,0.158l0.161-0.741
					C268.006,463.222,267.456,463.163,266.905,463.163z"/>
				<path id="XMLID_58_" style="fill:#999999;" d="M273.508,465.711c0.331-0.04,0.566-0.341,0.526-0.672
					c-0.04-0.331-0.341-0.566-0.672-0.526c-0.309,0.038-0.535,0.304-0.53,0.609l-0.416,0.363c-0.418-0.43-0.89-0.813-1.408-1.139
					l-0.404,0.641c1.134,0.715,2.021,1.726,2.563,2.925l0.691-0.313c-0.251-0.554-0.568-1.072-0.942-1.545l0.402-0.351
					C273.378,465.716,273.442,465.719,273.508,465.711z"/>
				<path id="XMLID_57_" style="fill:#999999;" d="M266.358,473.372c-0.386,0.023-0.775,0.035-1.157,0.035
					c-0.88,0-1.733-0.061-2.478-0.179c-0.39-0.062-0.846-0.155-1.27-0.292c1.046,1.861,3.069,3.125,5.388,3.125
					c2.855,0,5.262-1.916,5.95-4.504c-0.682,0.449-1.506,0.825-2.459,1.123C269.152,473.047,267.777,473.286,266.358,473.372z"/>
				<path id="XMLID_53_" style="fill:#999999;" d="M266.905,464.68c-3.352,0-6.08,2.666-6.08,5.943c0,0.426,0.046,0.849,0.137,1.261
					c0.673,0.483,2.706,0.89,5.348,0.731c2.879-0.173,5.297-0.957,6.672-2.159c-0.005-0.195-0.021-0.39-0.045-0.582
					C272.557,466.913,269.964,464.68,266.905,464.68z M264.746,471.194c-1.02,0-1.85-0.83-1.85-1.85c0-1.02,0.83-1.85,1.85-1.85
					c1.02,0,1.85,0.83,1.85,1.85C266.596,470.365,265.766,471.194,264.746,471.194z M269.483,470.286c-0.75,0-1.36-0.61-1.36-1.36
					s0.61-1.361,1.36-1.361c0.75,0,1.361,0.61,1.361,1.361S270.233,470.286,269.483,470.286z"/>
			</g>
			<path id="XMLID_50_" style="fill:#999999;" d="M282.909,466.547c-0.295-0.116-0.805-0.309-1.382-0.237
				c-0.551,0.069-0.844,0.341-0.844,1.007v0.866h2.228v1.717h-2.228v5.455h-1.932v-5.455h-1.34v-1.717h1.34v-0.888
				c0-1.68,0.896-2.783,2.568-2.783c0.643,0,1.157,0.122,1.59,0.308L282.909,466.547z"/>
			<path id="XMLID_48_" style="fill:#999999;" d="M287.611,469.879c-0.177-0.03-0.358-0.046-0.526-0.046
				c-0.896,0-1.51,0.548-1.51,1.614v3.908h-1.932v-7.172h1.873v0.785c0.451-0.673,1.14-0.977,2.021-0.977
				c0.414,0,0.848,0.128,1.094,0.337L287.611,469.879z"/>
			<path id="XMLID_45_" style="fill:#999999;" d="M295.279,471.757c0,0.222-0.015,0.489-0.037,0.651h-5.085
				c0.207,1.036,0.933,1.488,1.843,1.488c0.622,0,1.295-0.252,1.813-0.688l1.133,1.243c-0.814,0.748-1.85,1.088-3.057,1.088
				c-2.198,0-3.723-1.495-3.723-3.753c0-2.258,1.48-3.797,3.626-3.797C293.858,467.99,295.271,469.522,295.279,471.757z
				 M290.164,471.091h3.175c-0.177-0.918-0.733-1.436-1.562-1.436C290.867,469.655,290.335,470.203,290.164,471.091z"/>
			<path id="XMLID_42_" style="fill:#999999;" d="M302.932,471.757c0,0.222-0.015,0.489-0.037,0.651h-5.085
				c0.207,1.036,0.933,1.488,1.843,1.488c0.622,0,1.295-0.252,1.813-0.688l1.132,1.243c-0.814,0.748-1.85,1.088-3.057,1.088
				c-2.198,0-3.723-1.495-3.723-3.753c0-2.258,1.48-3.797,3.627-3.797C301.511,467.99,302.924,469.522,302.932,471.757z
				 M297.818,471.091h3.175c-0.178-0.918-0.733-1.436-1.562-1.436C298.521,469.655,297.988,470.203,297.818,471.091z"/>
			<path id="XMLID_39_" style="fill:#999999;" d="M311.278,471.764c0,2.154-1.495,3.775-3.471,3.775
				c-0.962,0-1.643-0.378-2.109-0.933v3.708h-1.924v-10.133h1.887v0.792c0.466-0.585,1.155-0.984,2.139-0.984
				C309.783,467.99,311.278,469.61,311.278,471.764z M305.601,471.764c0,1.132,0.748,1.976,1.843,1.976
				c1.14,0,1.85-0.881,1.85-1.976c0-1.095-0.71-1.976-1.85-1.976C306.348,469.788,305.601,470.632,305.601,471.764z"/>
			<path id="XMLID_36_" style="fill:#999999;" d="M314.381,465.836c0,0.696-0.54,1.229-1.236,1.229
				c-0.696,0-1.229-0.533-1.229-1.229c0-0.696,0.533-1.243,1.229-1.243C313.841,464.592,314.381,465.14,314.381,465.836z
				 M314.122,475.354h-1.932v-7.172h1.932V475.354z"/>
			<path id="XMLID_34_" style="fill:#999999;" d="M317.346,470.736l2.701-2.554h2.368l-3.479,3.375l3.501,3.797h-2.376l-2.716-2.901
				v2.901h-1.932v-10.658h1.932V470.736z"/>
		</g>
		<g>
			<path style="fill:#999999;" d="M185.726,475.289v-1.055c-0.527,0.718-1.391,1.23-2.387,1.23c-1.846,0-3.149-1.406-3.149-3.706
				c0-2.256,1.289-3.721,3.149-3.721c0.952,0,1.816,0.469,2.387,1.245v-3.765h1.099v9.77H185.726z M185.726,473.37v-3.208
				c-0.395-0.615-1.245-1.143-2.124-1.143c-1.421,0-2.27,1.172-2.27,2.739c0,1.567,0.85,2.724,2.27,2.724
				C184.481,474.483,185.33,473.986,185.726,473.37z"/>
			<path style="fill:#999999;" d="M188.245,471.744c0-2.051,1.465-3.706,3.486-3.706c2.139,0,3.398,1.67,3.398,3.794v0.279h-5.727
				c0.088,1.333,1.025,2.446,2.549,2.446c0.805,0,1.626-0.322,2.182-0.894l0.527,0.718c-0.703,0.703-1.655,1.084-2.812,1.084
				C189.754,475.465,188.245,473.956,188.245,471.744z M191.717,468.947c-1.509,0-2.256,1.274-2.314,2.358h4.644
				C194.031,470.25,193.328,468.947,191.717,468.947z"/>
			<path style="fill:#999999;" d="M195.921,474.351l0.571-0.791c0.469,0.542,1.362,1.011,2.329,1.011c1.084,0,1.67-0.513,1.67-1.216
				c0-1.714-4.38-0.659-4.38-3.281c0-1.098,0.952-2.036,2.636-2.036c1.201,0,2.051,0.454,2.622,1.026l-0.513,0.762
				c-0.424-0.513-1.201-0.894-2.109-0.894c-0.967,0-1.567,0.483-1.567,1.113c0,1.552,4.38,0.527,4.38,3.281
				c0,1.187-0.952,2.138-2.783,2.138C197.62,475.465,196.638,475.113,195.921,474.351z"/>
			<path style="fill:#999999;" d="M202.79,466.471c0-0.41,0.337-0.747,0.732-0.747c0.41,0,0.747,0.337,0.747,0.747
				c0,0.41-0.337,0.732-0.747,0.732C203.127,467.203,202.79,466.881,202.79,466.471z M202.981,475.289v-7.075h1.099v7.075H202.981z"
				/>
			<path style="fill:#999999;" d="M205.896,477.105l0.556-0.82c0.586,0.703,1.289,0.967,2.3,0.967c1.172,0,2.27-0.571,2.27-2.124
				v-1.011c-0.513,0.718-1.377,1.26-2.373,1.26c-1.845,0-3.149-1.377-3.149-3.662c0-2.27,1.289-3.677,3.149-3.677
				c0.952,0,1.802,0.469,2.373,1.245v-1.069h1.098v6.87c0,2.344-1.641,3.076-3.369,3.076
				C207.551,478.16,206.73,477.926,205.896,477.105z M211.022,473.253v-3.091c-0.381-0.615-1.23-1.143-2.109-1.143
				c-1.421,0-2.27,1.128-2.27,2.695c0,1.553,0.849,2.695,2.27,2.695C209.792,474.41,210.641,473.868,211.022,473.253z"/>
			<path style="fill:#999999;" d="M218.727,475.289v-4.629c0-1.245-0.63-1.641-1.582-1.641c-0.865,0-1.685,0.527-2.095,1.099v5.17
				h-1.099v-7.075h1.099v1.025c0.498-0.586,1.465-1.201,2.519-1.201c1.48,0,2.256,0.747,2.256,2.285v4.966H218.727z"/>
			<path style="fill:#999999;" d="M221.246,471.744c0-2.051,1.465-3.706,3.486-3.706c2.138,0,3.398,1.67,3.398,3.794v0.279h-5.727
				c0.088,1.333,1.025,2.446,2.549,2.446c0.806,0,1.626-0.322,2.183-0.894l0.527,0.718c-0.703,0.703-1.655,1.084-2.812,1.084
				C222.755,475.465,221.246,473.956,221.246,471.744z M224.718,468.947c-1.509,0-2.256,1.274-2.314,2.358h4.643
				C227.032,470.25,226.329,468.947,224.718,468.947z"/>
			<path style="fill:#999999;" d="M234.663,475.289v-1.055c-0.527,0.718-1.391,1.23-2.388,1.23c-1.845,0-3.149-1.406-3.149-3.706
				c0-2.256,1.289-3.721,3.149-3.721c0.952,0,1.817,0.469,2.388,1.245v-3.765h1.098v9.77H234.663z M234.663,473.37v-3.208
				c-0.396-0.615-1.245-1.143-2.124-1.143c-1.421,0-2.27,1.172-2.27,2.739c0,1.567,0.849,2.724,2.27,2.724
				C233.418,474.483,234.268,473.986,234.663,473.37z"/>
			<path style="fill:#999999;" d="M241.005,475.289v-9.77h1.099v3.765c0.572-0.776,1.421-1.245,2.388-1.245
				c1.845,0,3.149,1.465,3.149,3.721c0,2.299-1.304,3.706-3.149,3.706c-0.996,0-1.86-0.513-2.388-1.23v1.055H241.005z
				 M244.213,474.483c1.436,0,2.286-1.157,2.286-2.724c0-1.568-0.85-2.739-2.286-2.739c-0.864,0-1.728,0.527-2.109,1.143v3.208
				C242.485,473.986,243.349,474.483,244.213,474.483z"/>
			<path style="fill:#999999;" d="M248.842,477.061c0.161,0.073,0.425,0.117,0.601,0.117c0.483,0,0.806-0.161,1.055-0.747
				l0.469-1.069l-2.959-7.148h1.187l2.358,5.8l2.344-5.8h1.201l-3.545,8.51c-0.425,1.025-1.143,1.421-2.08,1.435
				c-0.234,0-0.601-0.044-0.805-0.103L248.842,477.061z"/>
		</g>
	</g>
</g>
</svg>
